<svg xmlns="http://www.w3.org/2000/svg" fill="none" viewBox="0 0 200 200"><path fill="#F0F2F3" d="M11 125.6h128.22V27.29H11v98.3Z"/><path fill="#D9DBDF" d="M11 97.77v27.83h128.22V90.8l-28.96-24.27a18.68 18.68 0 0 0-24.54.55L56.5 94.24 39.95 82.52a11.68 11.68 0 0 0-7.78-2.04 11.87 11.87 0 0 0-7.24 3.37L11 97.77Z"/><path fill="#fff" d="M45.24 68.35a10.35 10.35 0 1 0 0-20.7 10.35 10.35 0 0 0 0 20.7Z"/><path fill="#F0F2F3" d="M177.36 85.3a39.75 39.75 0 0 0-58.33 53.94l-9.17 9.22-2.13-2.13-37.1 37.17a6.8 6.8 0 1 0 9.6 9.63l37.12-37.17-2.11-2.11 9.25-9.31a39.76 39.76 0 0 0 52.87-59.28v.03Z"/><path fill="#fff" d="M184.1 9.6a4.73 4.73 0 0 0-4.68-4.6h-46.57a4.6 4.6 0 0 0-4.6 4.6v42.76a4.62 4.62 0 0 0 4.6 4.61h17.62c1.2.01 2.33.48 3.18 1.32l2.53 2.53 2.47-2.5a4.37 4.37 0 0 1 3.17-1.32h17.63a4.6 4.6 0 0 0 4.6-4.61l.06-42.79Z"/><path fill="#FB0" fill-rule="evenodd" d="m153.64 58.32 2.53 2.53 2.53-2.56a4.3 4.3 0 0 1 3.18-1.32h17.63a4.6 4.6 0 0 0 4.6-4.61V9.69a4.73 4.73 0 0 0-4.7-4.6h-46.56a4.6 4.6 0 0 0-4.6 4.6v42.7a4.62 4.62 0 0 0 4.6 4.61h17.61a4.46 4.46 0 0 1 3.18 1.32ZM131.83 9.69a1 1 0 0 1 1-1h46.58a1.1 1.1 0 0 1 1.08 1v42.67a1 1 0 0 1-1 1h-17.63a8.04 8.04 0 0 0-5.7 2.36 8.16 8.16 0 0 0-5.7-2.36h-17.63a1 1 0 0 1-1-1V9.69Z" clip-rule="evenodd"/><path fill="#FB0" d="M139.3 45.63h33.74l-16.87-29.14-16.87 29.14Zm18.4-4.6h-3.02v-3.09h3.02v3.09Zm0-6.14h-3.02v-6.14h3.02v6.14Z"/><path fill="#fff" d="M171.42 80.27a39.77 39.77 0 1 0-56.21 56.26 39.77 39.77 0 0 0 56.2-56.26Zm-6.27 49.95a30.89 30.89 0 1 1-43.68-43.69 30.89 30.89 0 0 1 43.68 43.69ZM64.69 188.05a6.8 6.8 0 0 1 0-9.63l37.1-37.17 9.62 9.62-37.1 37.18a6.78 6.78 0 0 1-9.62 0Z"/><path stroke="#D9DBDE" stroke-width="2.5" d="M64.69 188.05a6.8 6.8 0 0 1 0-9.63l37.1-37.17 9.62 9.62-37.1 37.18a6.78 6.78 0 0 1-9.62 0Z"/><path fill="#fff" stroke="#D9DBDE" stroke-width="2.5" d="M171.42 136.49a39.77 39.77 0 1 1-56.22-56.27 39.77 39.77 0 0 1 56.22 56.27Z"/><path stroke="#D9DBDE" stroke-width="2.5" d="m93.05 150.06 9.6 9.63"/><path fill="#fff" d="m112.97 134.39-9.04 9.04 5.38 5.37 9.04-9.04-5.38-5.37Z"/><path stroke="#D9DBDE" stroke-width="2.5" d="m112.97 134.39-9.04 9.04 5.38 5.37 9.04-9.04-5.38-5.37Zm52.18-4.17a30.89 30.89 0 1 1-43.68-43.69 30.89 30.89 0 0 1 43.68 43.69Z"/><path fill="#D9DBDE" d="M138.8 96H128v3h1.5c0-.66.54-1.2 1.2-1.2h2.25v7.5c0 .66-.54 1.2-1.2 1.2v1.5h4.5v-1.5a1.2 1.2 0 0 1-1.2-1.2v-7.5h2.25c.66 0 1.2.54 1.2 1.2h1.5v-3h-1.2Zm5.2 1h15v3h-15zm0 7h15v3h-15zm-14 7h29v3h-29zm0 7h29v3h-29z"/></svg>
